<svg xmlns="http://www.w3.org/2000/svg" xmlns:xlink="http://www.w3.org/1999/xlink" id="Layer_1" x="0px" y="0px" width="1080px" height="1080px" viewBox="0 0 1080 1080" xml:space="preserve"><path fill="#CFB496" d="M262.143,931.799l9.71-1.017h1.73l10.763,1.017v2.962h-22.203V931.799z M293.308,863.184h3.819 l24.136,71.577h-5.982l-22.082-66.635l2.045-0.624l-21.898,67.259h-3.824L293.308,863.184z M280.5,906.756h28.905l1.185,3.219 h-31.338L280.5,906.756z M302.721,931.799l12.883-1.017h1.73l12.423,1.017v2.962h-27.036V931.799z"></path><g>	<defs>		<rect id="SVGID_1_" width="1080" height="1080"></rect>	</defs>	<clipPath id="SVGID_2_">		<use xlink:href="#SVGID_1_"></use>	</clipPath>	<path clip-path="url(#SVGID_2_)" fill="#CFB496" d="M334.805,866.796v-2.962h13.732v4.042h-0.865L334.805,866.796z M348.537,930.72  v4.041h-13.732v-2.962l12.867-1.079H348.537z M345.673,896.449c0-10.898,0-21.841-0.253-32.615h6.235  c-0.253,10.688-0.253,21.631-0.253,33.238v1.938c0,14.035,0,24.977,0.253,35.751h-6.235c0.253-10.688,0.253-21.63,0.253-32.615  V896.449z M348.537,896.313h9.73c13.751,0,20.699-5.661,20.699-15.528c0-8.681-5.39-13.606-18.843-13.606h-11.586v-3.344h13.515  c14.974,0,22.518,6.843,22.518,16.881c0,8.58-6.304,16.214-20.796,17.585l0.624-0.885c16.786,0.683,23.769,8.421,23.769,18.342  c0,10.26-7.891,19.004-25.718,19.004h-13.912v-3.345h12.945c13.366,0,20.742-5.652,20.742-15.784  c0-10.346-6.917-16.101-23.017-16.101h-10.67V896.313z"></path>	<path clip-path="url(#SVGID_2_)" fill="#CFB496" d="M461.129,899.329c0,22.604-14.223,36.886-31.154,36.886  s-31.196-13.896-31.196-36.886c0-22.605,14.308-36.948,31.196-36.948S461.129,876.338,461.129,899.329 M429.976,932.698  c16.019,0,24.657-15.719,24.657-33.369c0-17.651-8.638-33.434-24.657-33.434s-24.7,15.782-24.7,33.434  C405.275,916.979,413.957,932.698,429.976,932.698"></path>	<path clip-path="url(#SVGID_2_)" fill="#CFB496" d="M531.402,929.883c-7.57,4.348-14.039,6.332-22.46,6.332  c-20.792,0-34.728-15.24-34.728-36.887c0-21.707,14.289-36.947,34.961-36.947c8.92,0,15.069,1.952,21.21,5.735l0.421,14.882h-4.111  l-2.194-15.385l3.967,1.419v3.691c-5.806-4.638-11.093-6.828-18.762-6.828c-17.285,0-28.994,12.839-28.994,33.433  c0,20.613,11.26,33.328,28.92,33.328c6.995,0,12.597-1.68,18.782-5.436l-2.741,3.013v-5.417c0-7.871-0.105-15.766-0.316-23.637  h6.361c-0.211,7.143-0.316,14.434-0.316,23.637V929.883z M513.481,904.142v-2.962h25.484v2.962l-10.077,0.865h-1.73  L513.481,904.142z"></path>	<path clip-path="url(#SVGID_2_)" fill="#CFB496" d="M540.021,931.799l9.71-1.017h1.73l10.763,1.017v2.962h-22.203V931.799z   M571.187,863.184h3.819l24.136,71.577h-5.982l-22.082-66.635l2.046-0.624l-21.898,67.259H547.4L571.187,863.184z M558.379,906.756  h28.904l1.186,3.219h-31.338L558.379,906.756z M580.6,931.799l12.883-1.017h1.73l12.423,1.017v2.962H580.6V931.799z"></path>	<path clip-path="url(#SVGID_2_)" fill="#CFB496" d="M612.684,866.796v-2.962h13.732v4.041h-0.865L612.684,866.796z   M626.416,930.719v4.042h-13.732v-2.962l12.867-1.08H626.416z M623.552,897.197c0-11.647,0-22.589-0.253-33.363h6.235  c-0.253,10.688-0.253,21.63-0.253,33.363v2.563c0,13.284,0,24.226,0.253,35h-6.235c0.253-10.688,0.253-21.631,0.253-35V897.197z   M626.416,931.417h12.451c20.257,0,30.363-12.274,30.363-32.045c0-20.945-10.23-32.194-29.043-32.194h-13.771v-3.344h14.937  c21.236,0,34.376,12.664,34.376,35.538c0,21.915-13.701,35.389-35.795,35.389h-13.518V931.417z"></path>	<path clip-path="url(#SVGID_2_)" fill="#CFB496" d="M751.165,899.329c0,22.604-14.224,36.886-31.154,36.886  s-31.196-13.896-31.196-36.886c0-22.605,14.309-36.948,31.196-36.948S751.165,876.338,751.165,899.329 M720.011,932.698  c16.019,0,24.657-15.719,24.657-33.369c0-17.651-8.639-33.434-24.657-33.434c-16.02,0-24.7,15.782-24.7,33.434  C695.311,916.979,703.991,932.698,720.011,932.698"></path>	<path clip-path="url(#SVGID_2_)" fill="#CFB496" d="M801.451,917.869c0-7.4-3.729-11.261-15.438-15.96l-3.935-1.578  c-11.043-4.396-17.037-10.436-17.037-19.92c0-12.099,9.957-18.03,21.511-18.03c7.423,0,12.251,1.96,17.024,5.265l-0.444,13.054  h-3.944l-1.824-14.266l3.68,1.976v2.892c-4.781-3.928-8.861-5.404-14.686-5.404c-9.329,0-16.16,4.415-16.16,13.427  c0,7.563,4.875,11.83,12.93,15.024l4.165,1.642c14.947,5.926,19.315,11.467,19.315,21.046c0,11.978-9.979,19.179-23.645,19.179  c-8.141,0-15.634-2.712-20.037-5.638l0.569-13.857h3.757l1.926,14.77l-3.973-1.887v-3.056c6.212,4.61,10.475,6.153,17.629,6.153  C793.764,932.699,801.451,927.758,801.451,917.869"></path>	<path clip-path="url(#SVGID_2_)" fill="#CFB496" d="M702.359,185.343h26.558c18.933,0,29.537,8.94,31.817,26.821v9.467  c0,19.983-19.459,52.679-58.375,98.078h-11.307c-1.931,0-3.944-1.841-6.047-5.522c10.518-18.052,22.613-32.605,36.286-43.649  c13.673-26.118,20.51-43.123,20.51-51.011v-11.308c-4.732-8.939-12.885-13.409-24.454-13.409  c-37.516,0-80.987,12.095-130.422,36.286c-36.114,17.881-77.833,48.12-125.164,90.717  c-54.693,55.396-99.484,110.352-134.366,164.868c-24.19,40.495-41.808,77.661-52.852,111.49  c-5.082,23.665-8.239,41.985-9.467,54.956c0,47.33,21.386,78.183,64.16,92.559h13.409c59.953,0,153.998-50.487,282.144-151.459  c6.483-7.534,12.794-11.307,18.933-11.307l9.466,1.842v7.625c-4.561,2.279-29.804,21.824-75.729,58.637  c-96.593,63.982-159.701,96.851-189.323,98.605c-3.156,3.504-19.634,6.048-49.434,7.625c-44.175,0-73.889-25.242-89.14-75.729  c-1.052-6.66-1.577-12.97-1.577-18.932v-14.988c0-78.707,61.177-184.852,183.537-318.429  c56.97-53.814,103.076-88.523,138.311-104.127C620.846,198.582,665.021,185.343,702.359,185.343"></path>	<path clip-path="url(#SVGID_2_)" fill="#CFB496" d="M697.363,564.777c2.631,0.176,3.945,1.314,3.945,3.418v2.104l-88.203,203.846  c2.457,0,3.682,1.841,3.682,5.521c-3.682,7.889-9.376,14.812-17.092,20.772h-7.363c-2.629,0-3.943-1.932-3.943-5.785  c65.737-155.139,50.428-116.456,80.576-184.649h-1.84c-6.837,9.293-15.69,16.828-26.558,22.612h-14.988  c-1.75,0-3.681-2.538-5.785-7.624c7.89-23.838,15.515-38.917,22.877-45.228h9.466v3.944l-14.988,37.865  c6.838-4.208,25.066-23.14,54.693-56.797H697.363z"></path>	<path clip-path="url(#SVGID_2_)" fill="#CFB496" d="M754.317,491.847h5.785c2.452,0.354,3.68,1.578,3.68,3.681  c0,5.436-5.698,21.214-17.091,47.332h88.842L845,544.7v6.047c0,3.683-11.483,5.522-34.445,5.522h-7.363l-5.521-3.944h-56.501  c0,2.28,14.61-33.859-82.68,192.275c2.629,0,3.943,2.014,3.943,6.048c-7.888,17.526-15.514,26.295-22.876,26.295  c-6.312-1.052-9.467-2.983-9.467-5.785l94.25-218.833H602.858c-2.452,0-3.681-1.224-3.681-3.681  c1.405-3.854,5.26-5.784,11.57-5.784h115.171c2.104,0,10.341-16.304,24.717-48.909L754.317,491.847z"></path></g></svg>